<svg xmlns="http://www.w3.org/2000/svg" xmlns:xlink="http://www.w3.org/1999/xlink" viewBox="0 0 100 21.81"><defs><style>.cls-1{fill:#fff;}.cls-2{fill:url(#linear-gradient);}.cls-3{fill:url(#New_Gradient_Swatch_18);}.cls-4{fill:url(#linear-gradient-2);}.cls-5{fill:url(#New_Gradient_Swatch_18-2);}.cls-6{fill:url(#linear-gradient-3);}.cls-7{fill:url(#New_Gradient_Swatch_18-3);}.cls-8{fill:url(#linear-gradient-4);}.cls-9{fill:url(#New_Gradient_Swatch_18-4);}</style><linearGradient id="linear-gradient" x1="-839.28" y1="-843.58" x2="-835.92" y2="-839.58" gradientTransform="translate(918.56 -753.98) rotate(-84.77)" gradientUnits="userSpaceOnUse"><stop offset="0.06" stop-color="#f8d12f"/><stop offset="0.28" stop-color="#f7cc2e"/><stop offset="0.54" stop-color="#f4bc2a"/><stop offset="0.83" stop-color="#f0a325"/><stop offset="0.99" stop-color="#ed9321"/></linearGradient><linearGradient id="New_Gradient_Swatch_18" x1="-846.23" y1="-842.78" x2="-838.17" y2="-837.14" gradientTransform="translate(918.56 -753.98) rotate(-84.77)" gradientUnits="userSpaceOnUse"><stop offset="0.06" stop-color="#fade40"/><stop offset="0.14" stop-color="#f9da3b"/><stop offset="0.23" stop-color="#f8d12f"/><stop offset="0.33" stop-color="#f7cc2e"/><stop offset="0.46" stop-color="#f5bc2c"/><stop offset="0.61" stop-color="#f1a329"/><stop offset="0.76" stop-color="#eb8025"/><stop offset="1" stop-color="#9d4320"/></linearGradient><linearGradient id="linear-gradient-2" x1="-3861.56" y1="5033.19" x2="-3858.21" y2="5037.19" gradientTransform="translate(4314.76 -4664.09) rotate(5.15)" xlink:href="#linear-gradient"/><linearGradient id="New_Gradient_Swatch_18-2" x1="-3868.52" y1="5033.99" x2="-3860.46" y2="5039.63" gradientTransform="translate(4314.76 -4664.09) rotate(5.15)" xlink:href="#New_Gradient_Swatch_18"/><linearGradient id="linear-gradient-3" x1="1995.53" y1="8105.12" x2="1998.88" y2="8109.12" gradientTransform="translate(8255.36 -1343.97) rotate(94.45)" xlink:href="#linear-gradient"/><linearGradient id="New_Gradient_Swatch_18-3" x1="1988.57" y1="8105.91" x2="1996.63" y2="8111.56" gradientTransform="translate(8255.36 -1343.97) rotate(94.45)" xlink:href="#New_Gradient_Swatch_18"/><linearGradient id="linear-gradient-4" x1="5027.55" y1="2217.93" x2="5030.91" y2="2221.93" gradientTransform="translate(4788.75 2723.62) rotate(-174.33)" xlink:href="#linear-gradient"/><linearGradient id="New_Gradient_Swatch_18-4" x1="5020.6" y1="2218.73" x2="5028.65" y2="2224.37" gradientTransform="translate(4788.75 2723.62) rotate(-174.33)" xlink:href="#New_Gradient_Swatch_18"/></defs><title>100px_AUCloud_White</title><g id="Layer_2" data-name="Layer 2"><g id="Layer_3" data-name="Layer 3"><path class="cls-1" d="M34.55,16.09l-1-2.36H29.13l-1,2.36H25.79L30.32,5.47h2.13L37,16.09Zm-3.2-7.83L30,11.68h2.8Z"/><path class="cls-1" d="M41.83,16.26c-2.83,0-4.56-1.58-4.56-4.69v-6h2.32v6c0,1.71.86,2.6,2.27,2.6s2.28-.86,2.28-2.53v-6h2.32v6C46.46,14.69,44.66,16.26,41.83,16.26Z"/><path class="cls-1" d="M53.33,16.27a5.31,5.31,0,0,1-5.4-5.42v0a5.35,5.35,0,0,1,5.49-5.45A5.5,5.5,0,0,1,57.59,7l-1.48,1.7a4,4,0,0,0-2.7-1.19,3.13,3.13,0,0,0-3.06,3.29V11a3.11,3.11,0,0,0,3.07,3.14,3.85,3.85,0,0,0,2.76-1.24l1.49,1.49A5.44,5.44,0,0,1,53.33,16.27Z"/><path class="cls-1" d="M59,16.09V5.55h2.32V14h5.25v2.11Z"/><path class="cls-1" d="M72.42,16.27a5.4,5.4,0,0,1-5.6-5.42v0a5.45,5.45,0,0,1,5.63-5.45A5.39,5.39,0,0,1,78,10.79v0A5.44,5.44,0,0,1,72.42,16.27Zm3.19-5.45A3.21,3.21,0,0,0,72.42,7.5a3.16,3.16,0,0,0-3.17,3.29v0a3.21,3.21,0,0,0,3.2,3.32,3.15,3.15,0,0,0,3.16-3.29Z"/><path class="cls-1" d="M83.93,16.26c-2.83,0-4.57-1.58-4.57-4.69v-6h2.32v6c0,1.71.86,2.6,2.28,2.6s2.28-.86,2.28-2.53v-6h2.32v6C88.56,14.69,86.77,16.26,83.93,16.26Z"/><path class="cls-1" d="M94.39,16.09H90.28V5.55h4.11A5.26,5.26,0,0,1,100,10.79v0A5.28,5.28,0,0,1,94.39,16.09Zm3.18-5.27a3,3,0,0,0-3.18-3.18H92.6V14h1.79a3,3,0,0,0,3.18-3.15Z"/><path class="cls-2" d="M3,2.6H3a3,3,0,0,0-1.1,2.14c.5-1.2,1.84-1.59,3.7-1a1,1,0,0,0,1.18-.5c.25-.53-.11-1-1-1.11A3.62,3.62,0,0,0,3,2.6Z"/><path class="cls-3" d="M5.78,2.11A3.62,3.62,0,0,0,3,2.6c-3,2.45.59,7.49,4.46,10.69,1.57,1.12.34,2.3-.08,2.64a.23.23,0,0,1-.27,0C-1.34,10-.44,4.92.78,3.46s2.66-1.83,5-1.35"/><path class="cls-4" d="M19.19,3h0a2.94,2.94,0,0,0-2.14-1.11c1.2.51,1.59,1.84,1,3.71a1,1,0,0,0,.5,1.18c.52.25,1-.11,1.1-1A3.57,3.57,0,0,0,19.19,3Z"/><path class="cls-5" d="M19.68,5.78A3.56,3.56,0,0,0,19.19,3c-2.45-3-7.48.59-10.68,4.47C7.39,9,6.21,7.8,5.87,7.37a.2.2,0,0,1,0-.26c5.92-8.45,11-7.55,12.47-6.34s1.83,2.66,1.35,5"/><path class="cls-6" d="M18.93,19.12h0A2.93,2.93,0,0,0,20,17c-.49,1.21-1.82,1.61-3.69,1.07a1,1,0,0,0-1.18.51c-.24.53.13,1,1,1.1A3.61,3.61,0,0,0,18.93,19.12Z"/><path class="cls-7" d="M16.14,19.65a3.6,3.6,0,0,0,2.79-.53c2.94-2.48-.69-7.47-4.6-10.62-1.59-1.11-.38-2.3.05-2.65a.21.21,0,0,1,.26,0c8.52,5.82,7.68,10.92,6.49,12.39s-2.64,1.86-5,1.42"/><path class="cls-8" d="M2.6,18.8h0a3,3,0,0,0,2.13,1.12c-1.19-.52-1.57-1.85-1-3.71A1,1,0,0,0,3.25,15c-.52-.25-1,.11-1.11,1A3.64,3.64,0,0,0,2.6,18.8Z"/><path class="cls-9" d="M2.14,16A3.63,3.63,0,0,0,2.6,18.8c2.43,3,7.49-.53,10.73-4.38,1.13-1.56,2.3-.32,2.64.11a.23.23,0,0,1,0,.26C10,23.18,4.89,22.23,3.45,21s-1.81-2.67-1.31-5"/></g></g></svg>