<?xml version="1.0" encoding="UTF-8"?>
<svg xmlns="http://www.w3.org/2000/svg" xmlns:xlink="http://www.w3.org/1999/xlink" version="1.1" viewBox="0 0 717.4 158.7">
  <defs>
    <style>
      .cls-1 {
        fill: url(#linear-gradient-8);
      }

      .cls-2 {
        fill: url(#linear-gradient-7);
      }

      .cls-3 {
        fill: url(#linear-gradient-5);
      }

      .cls-4 {
        fill: url(#linear-gradient-6);
      }

      .cls-5 {
        fill: url(#linear-gradient-4);
      }

      .cls-6 {
        fill: url(#linear-gradient-3);
      }

      .cls-7 {
        fill: url(#linear-gradient-2);
      }

      .cls-8 {
        fill: url(#linear-gradient);
      }

      .cls-9 {
        fill: #fff;
      }
    </style>
    <linearGradient id="linear-gradient" x1="366.8" y1="-314.4" x2="391.2" y2="-285.3" gradientTransform="translate(294.2 430.2) rotate(-84.8)" gradientUnits="userSpaceOnUse">
      <stop offset="0" stop-color="#f3cf3c"/>
      <stop offset=".3" stop-color="#f1c93a"/>
      <stop offset=".5" stop-color="#edba36"/>
      <stop offset=".8" stop-color="#e7a130"/>
      <stop offset="1" stop-color="#e28d2c"/>
    </linearGradient>
    <linearGradient id="linear-gradient-2" x1="316.1" y1="-308.5" x2="374.7" y2="-267.4" gradientTransform="translate(294.2 430.2) rotate(-84.8)" gradientUnits="userSpaceOnUse">
      <stop offset="0" stop-color="#f6dc49"/>
      <stop offset=".2" stop-color="#f4d643"/>
      <stop offset=".2" stop-color="#f3cf3c"/>
      <stop offset=".3" stop-color="#f1c93b"/>
      <stop offset=".5" stop-color="#edba38"/>
      <stop offset=".6" stop-color="#e7a134"/>
      <stop offset=".7" stop-color="#de7e2e"/>
      <stop offset=".8" stop-color="#dd772d"/>
      <stop offset="1" stop-color="#893d24"/>
    </linearGradient>
    <linearGradient id="linear-gradient-3" x1="-3816.2" y1="5526.1" x2="-3791.7" y2="5555.3" gradientTransform="translate(4420.8 -5146.9) rotate(5.2)" gradientUnits="userSpaceOnUse">
      <stop offset="0" stop-color="#f3cf3c"/>
      <stop offset=".3" stop-color="#f1c93a"/>
      <stop offset=".5" stop-color="#edba36"/>
      <stop offset=".8" stop-color="#e7a130"/>
      <stop offset="1" stop-color="#e28d2c"/>
    </linearGradient>
    <linearGradient id="linear-gradient-4" x1="-3867.7" y1="5532.8" x2="-3809" y2="5573.9" gradientTransform="translate(4420.8 -5146.9) rotate(5.2)" gradientUnits="userSpaceOnUse">
      <stop offset="0" stop-color="#f6dc49"/>
      <stop offset=".2" stop-color="#f4d643"/>
      <stop offset=".2" stop-color="#f3cf3c"/>
      <stop offset=".3" stop-color="#f1c93b"/>
      <stop offset=".5" stop-color="#edba38"/>
      <stop offset=".6" stop-color="#e7a134"/>
      <stop offset=".7" stop-color="#de7e2e"/>
      <stop offset=".8" stop-color="#dd772d"/>
      <stop offset="1" stop-color="#893d24"/>
    </linearGradient>
    <linearGradient id="linear-gradient-5" x1="1991.2" y1="9758.5" x2="2015.6" y2="9787.7" gradientTransform="translate(10023.8 -1112.4) rotate(94.4)" gradientUnits="userSpaceOnUse">
      <stop offset="0" stop-color="#f3cf3c"/>
      <stop offset=".3" stop-color="#f1c93a"/>
      <stop offset=".5" stop-color="#edba36"/>
      <stop offset=".8" stop-color="#e7a130"/>
      <stop offset="1" stop-color="#e28d2c"/>
    </linearGradient>
    <linearGradient id="linear-gradient-6" x1="1942.8" y1="9764.5" x2="2001.6" y2="9805.6" gradientTransform="translate(10023.8 -1112.4) rotate(94.4)" gradientUnits="userSpaceOnUse">
      <stop offset="0" stop-color="#f6dc49"/>
      <stop offset=".2" stop-color="#f4d643"/>
      <stop offset=".2" stop-color="#f3cf3c"/>
      <stop offset=".3" stop-color="#f1c93b"/>
      <stop offset=".5" stop-color="#edba38"/>
      <stop offset=".6" stop-color="#e7a134"/>
      <stop offset=".7" stop-color="#de7e2e"/>
      <stop offset=".8" stop-color="#dd772d"/>
      <stop offset="1" stop-color="#893d24"/>
    </linearGradient>
    <linearGradient id="linear-gradient-7" x1="6205.3" y1="3902.9" x2="6229.8" y2="3932" gradientTransform="translate(5822.4 4642.8) rotate(-174.3)" gradientUnits="userSpaceOnUse">
      <stop offset="0" stop-color="#f3cf3c"/>
      <stop offset=".3" stop-color="#f1c93a"/>
      <stop offset=".5" stop-color="#edba36"/>
      <stop offset=".8" stop-color="#e7a130"/>
      <stop offset="1" stop-color="#e28d2c"/>
    </linearGradient>
    <linearGradient id="linear-gradient-8" x1="6154.1" y1="3907.9" x2="6212.8" y2="3949" gradientTransform="translate(5822.4 4642.8) rotate(-174.3)" gradientUnits="userSpaceOnUse">
      <stop offset="0" stop-color="#f6dc49"/>
      <stop offset=".2" stop-color="#f4d643"/>
      <stop offset=".2" stop-color="#f3cf3c"/>
      <stop offset=".3" stop-color="#f1c93b"/>
      <stop offset=".5" stop-color="#edba38"/>
      <stop offset=".6" stop-color="#e7a134"/>
      <stop offset=".7" stop-color="#de7e2e"/>
      <stop offset=".8" stop-color="#dd772d"/>
      <stop offset="1" stop-color="#893d24"/>
    </linearGradient>
  </defs>
  <!-- Generator: Adobe Illustrator 28.7.1, SVG Export Plug-In . SVG Version: 1.2.0 Build 142)  -->
  <g>
    <g id="Layer_1">
      <path class="cls-8" d="M21.7,18.9h0c-5.1,4.2-7.7,9.7-8.1,15.6,3.7-8.7,13.4-11.6,27-7.4,3.3,1,7.1-.4,8.6-3.6,1.8-3.8-.8-7-7.1-8.1-6.5-1.5-15-.5-20.4,3.5h0Z"/>
      <path class="cls-7" d="M42.1,15.4c-6.9-1.4-15-.5-20.4,3.5C0,36.7,26,73.4,54.2,96.7c11.4,8.2,2.5,16.7-.6,19.2-.6.4-1.3.5-1.9,0C-9.8,72.8-3.2,35.8,5.6,25.2c8.1-10.6,19.4-13.3,36.5-9.8"/>
      <path class="cls-6" d="M139.7,21.7h0c-4.2-5.1-9.7-7.7-15.6-8,8.7,3.7,11.6,13.4,7.4,27-1,3.3.5,7.1,3.6,8.6,3.9,1.8,7-.8,8.1-7.1,1.5-6.5.5-15-3.6-20.4h0Z"/>
      <path class="cls-5" d="M143.3,42.1c1.4-7,.5-15-3.6-20.4C121.9,0,85.2,26,62,54.3c-8.2,11.4-16.7,2.5-19.2-.6-.4-.6-.5-1.3,0-1.9C85.7-9.7,122.8-3.2,133.4,5.6c10.6,8.1,13.3,19.3,9.8,36.5"/>
      <path class="cls-3" d="M137.8,139.2h0c5.1-4.3,7.5-9.8,7.8-15.7-3.6,8.8-13.2,11.7-26.9,7.8-3.4-1-7.1.6-8.6,3.7-1.8,3.9.9,7,7.2,8,6.5,1.4,15.1.3,20.4-3.8h.1Z"/>
      <path class="cls-4" d="M117.1,143c7,1.3,15.4.4,20.7-3.8,21.4-18.1-5-54.4-33.5-77.4-11.5-8-2.7-16.7.4-19.2.6-.4,1.3-.5,1.9,0,62,42.4,55.9,79.5,47.2,90.2-8,10.7-19.5,13.6-36.7,10.2"/>
      <path class="cls-2" d="M19,136.8h0c4.2,5.2,9.6,7.7,15.5,8.2-8.7-3.8-11.4-13.5-7.2-27,1-3.3-.4-7.1-3.5-8.6-3.8-1.9-7,.8-8.1,7.1-1.5,6.5-.6,15,3.4,20.4h0Z"/>
      <path class="cls-1" d="M15.6,116.4c-1.5,6.9-.6,15,3.4,20.4,17.6,21.8,54.5-3.8,78.1-31.9,8.3-11.3,16.8-2.4,19.2.8.4.6.5,1.3,0,1.9-43.7,61.1-80.7,54.2-91.2,45.3-10.5-8.2-13.1-19.5-9.5-36.5"/>
      <path class="cls-9" d="M220.7,39.8h15.6l32.9,77.3h-17.6l-7-17.2h-32.5l-7,17.2h-17.2l32.9-77.3h-.1ZM238.4,85l-10.2-24.9-10.2,24.9h20.4Z"/>
      <path class="cls-9" d="M271.3,84.2v-43.9h16.9v43.4c0,12.6,6.1,19,16.6,19s16.6-6.1,16.6-18.4v-44h16.9v43.3c0,23.2-13,34.6-33.7,34.6s-33.2-11.4-33.2-34.1h0Z"/>
      <path class="cls-9" d="M348.9,79v-.2c0-21.8,16.5-39.7,40-39.7s23.2,4.8,30.3,11.8l-10.8,12.4c-6-5.4-11.8-8.7-19.6-8.7-12.9,0-22.3,10.8-22.3,23.9v.2c0,13.2,9.1,24.1,22.3,24.1s14.1-3.4,20.2-9l10.8,10.9c-7.9,8.4-16.6,13.7-31.5,13.7-22.6,0-39.4-17.4-39.4-39.5h0Z"/>
      <path class="cls-9" d="M452,86.9l-29.5-46.5h19.7l18.3,30.8,18.6-30.8h19.2l-29.5,46.2v30.6h-16.9v-30.3h0Z"/>
      <path class="cls-9" d="M506.8,40.4h35.6c8.9,0,15.6,2.3,20.1,6.8s5.3,7.9,5.3,13.1v.2c0,8.6-4.6,13.7-10.1,16.6,8.9,3.4,14.4,8.7,14.4,18.9v.2c0,14-11.4,21.1-28.7,21.1h-36.5V40.4h0ZM551,63.1c0-5.1-4-7.9-11.1-7.9h-16.7v16.2h15.6c7.5,0,12.2-2.4,12.2-8.1v-.2h0ZM555.3,93.8c0-5.1-3.7-8.3-12.5-8.3h-19.5v16.9h20.1c7.5,0,12-2.6,12-8.3v-.2h0Z"/>
      <path class="cls-9" d="M581.8,40.4h57.9v15h-41.1v15.6h36.2v15h-36.2v16.1h41.7v15h-58.4V40.4h-.1Z"/>
      <path class="cls-9" d="M651.1,40.4h35.1c9.8,0,17.2,2.6,22.4,7.8,4.4,4.4,6.6,10.2,6.6,17.5v.2c0,12.4-6.7,20.2-16.5,23.8l18.8,27.4h-19.7l-16.5-24.6h-13.3v24.6h-16.9V40.4h0ZM685.1,77.7c8.3,0,12.9-4.3,12.9-10.9v-.2c0-7.4-4.9-11-13.3-11h-16.8v22h17.2Z"/>
    </g>
  </g>
</svg>